<?xml version="1.0" encoding="UTF-8"?>
<svg version="1.1" xmlns="http://www.w3.org/2000/svg" width="612" height="612">
<path d="M0 0 C201.96 0 403.92 0 612 0 C612 201.96 612 403.92 612 612 C410.04 612 208.08 612 0 612 C0 410.04 0 208.08 0 0 Z " fill="#1C1C1C" transform="translate(0,0)"/>
<path d="M0 0 C3.85110364 2.63496565 4.7882822 5.60495578 6 10 C7.81632748 29.89512196 3.28000147 50.22096648 -3 69 C-3.30550781 69.96421875 -3.61101562 70.9284375 -3.92578125 71.921875 C-9.34538345 88.06130712 -18.21937836 102.9369027 -29 116 C-30.31285993 117.68721999 -31.62536122 119.37471911 -32.9375 121.0625 C-44.54766448 135.51873592 -59.2962712 146.71561142 -75.3125 155.875 C-75.99465576 156.26880859 -76.67681152 156.66261719 -77.37963867 157.06835938 C-80.9045178 159.04315935 -83.92160514 160.51090816 -88 161 C-88.19227173 161.8667334 -88.19227173 161.8667334 -88.38842773 162.75097656 C-88.99585103 164.98474239 -89.79023509 166.89711383 -90.78515625 168.984375 C-91.15189453 169.75652344 -91.51863281 170.52867187 -91.89648438 171.32421875 C-92.28126953 172.12472656 -92.66605469 172.92523438 -93.0625 173.75 C-93.42021484 174.50410156 -93.77792969 175.25820313 -94.14648438 176.03515625 C-97.98428148 184.07938963 -102.00041215 192.03543798 -106 200 C-106.35093719 200.698974 -106.70187439 201.397948 -107.06344604 202.11810303 C-107.77134623 203.52804104 -108.47927778 204.93796331 -109.1872406 206.34786987 C-110.58707644 209.1362449 -111.98592882 211.92511257 -113.38452148 214.71411133 C-114.09835821 216.13665403 -114.81289886 217.55884369 -115.52807617 218.98071289 C-116.58178134 221.07605518 -117.63293714 223.17265904 -118.68359375 225.26953125 C-119.16317787 226.22095757 -119.16317787 226.22095757 -119.65245056 227.19160461 C-120.94415117 229.77467448 -122.08500334 232.25501002 -123 235 C-122.27490234 235.2693335 -121.54980469 235.53866699 -120.80273438 235.81616211 C-118.04038317 236.98294268 -115.68117022 238.32979232 -113.15625 239.94140625 C-112.24625244 240.52051758 -111.33625488 241.09962891 -110.39868164 241.69628906 C-109.4421167 242.31213867 -108.48555176 242.92798828 -107.5 243.5625 C-106.51185303 244.19510742 -105.52370605 244.82771484 -104.50561523 245.47949219 C-98.27484043 249.48590235 -92.13486199 253.58647808 -86.078125 257.8515625 C-82.52509996 260.33146576 -78.92423841 262.73183619 -75.3125 265.125 C-71.173632 267.87000272 -67.05670263 270.63407078 -63 273.5 C-51.90758431 281.31594307 -40.52588584 288.68104854 -28.96875 295.78857422 C-27.67542699 296.58439128 -26.38370465 297.38281666 -25.09375 298.18408203 C-16.32149192 303.62790781 -7.40545479 308.57224579 1.91992188 313.00732422 C3.31334296 313.67230663 4.70267784 314.34591601 6.08789062 315.02783203 C27.14018472 325.36445011 55.44382203 334.47587695 78.875 327.4375 C85.95799027 324.50836714 91.22510539 320.54167338 94.25 313.375 C94.86559849 311.59416151 95.44587271 309.8009137 96 308 C96.37125 306.8346875 96.7425 305.669375 97.125 304.46875 C98.11072574 301.3199039 99.06739148 298.16491614 100 295 C104.7890625 295.7890625 104.7890625 295.7890625 106.6875 297.6875 C109.86421789 303.28457438 110.35858449 308.46604995 110.3125 314.75 C110.30686035 315.55058838 110.3012207 316.35117676 110.29541016 317.17602539 C110.05545737 328.88263285 105.93124763 339.87500263 98 348.6875 C81.92830728 363.54218258 62.16853803 364.91704077 41.37255859 364.21777344 C8.45117479 362.09196814 -24.90953821 343.49220983 -50 323 C-51.45613558 321.8721568 -52.91454503 320.74724435 -54.375 319.625 C-67.45406118 309.44233991 -80.11838552 298.74914807 -92.2890625 287.5 C-98.07907383 282.16050829 -103.97329816 277.15991335 -110.3125 272.48046875 C-110.869375 271.99191406 -111.42625 271.50335938 -112 271 C-112 270.34 -112 269.68 -112 269 C-112.66 268.814375 -113.32 268.62875 -114 268.4375 C-118.32755769 266.36387861 -121.47957359 263.21982074 -125 260 C-126.26492325 258.86835892 -127.53535985 257.74283514 -128.8125 256.625 C-129.35519531 256.14289063 -129.89789063 255.66078125 -130.45703125 255.1640625 C-132.11513488 253.78444908 -132.11513488 253.78444908 -135 253 C-135.268125 253.70125 -135.53625 254.4025 -135.8125 255.125 C-138.99857083 262.83864516 -143.31159828 267.98467864 -149 274 C-149.63035156 274.70640625 -150.26070312 275.4128125 -150.91015625 276.140625 C-156.44385701 282.10903261 -162.95191352 286.01555062 -170 290 C-171.16595703 290.69416016 -171.16595703 290.69416016 -172.35546875 291.40234375 C-177.9931407 294.52551423 -183.98573678 296.37961315 -190.125 298.25 C-190.97263916 298.50861816 -191.82027832 298.76723633 -192.69360352 299.03369141 C-202.42098156 301.87966383 -211.65872917 302.20714959 -221.75 302.25 C-222.94882813 302.270625 -224.14765625 302.29125 -225.3828125 302.3125 C-241.80982829 302.38376688 -255.90531637 297.43626791 -268.453125 286.68359375 C-278.07172295 276.54866002 -282.51487401 263.71275081 -282.34985352 249.89428711 C-281.87078895 236.26917481 -275.43847982 225.45445856 -265.65234375 216.13671875 C-248.5818434 202.38478401 -227.3805031 199.17720379 -206 201 C-191.98051612 202.83709981 -178.78682492 206.61994599 -165.83154297 212.21289062 C-163.30423022 213.2990085 -160.74706964 214.30520974 -158.1875 215.3125 C-156.79145624 215.87447754 -155.3956123 216.43695182 -154 217 C-152.33349594 217.66707305 -150.66686721 218.33383492 -149 219 C-148.49919922 217.29070312 -148.49919922 217.29070312 -147.98828125 215.546875 C-145.41348658 207.83003285 -141.69017867 200.57687838 -138.1875 193.25 C-137.13036718 191.0265515 -136.07469575 188.80241305 -135.01907349 186.57824707 C-134.33162553 185.13026955 -133.64354471 183.6825923 -132.95480347 182.23522949 C-129.91747621 175.8473802 -126.94525817 169.4308663 -124 163 C-125.0636377 162.96479248 -126.12727539 162.92958496 -127.22314453 162.89331055 C-146.72301526 162.15339949 -163.39981062 157.29353136 -177.81640625 143.46875 C-189.48137328 130.28045096 -192.75509604 113.222644 -192.13183594 96.11376953 C-190.73146348 73.66113119 -178.76859893 47.65637594 -162.25 32.375 C-154.89985811 26.24751228 -146.83831109 21.5962783 -138 18 C-136.98679688 17.52433594 -135.97359375 17.04867187 -134.9296875 16.55859375 C-118.95575219 9.7339087 -95.71945569 6.07545139 -79 12 C-78.01 12.66 -77.02 13.32 -76 14 C-77.875 17.875 -77.875 17.875 -79 19 C-85.72 18.28 -85.72 18.28 -87 17 C-108.99893671 18.08191492 -127.13017041 31.39755687 -141.75 46.8125 C-157.72796133 65.37906959 -166.7132632 85.84381348 -165.25878906 110.55615234 C-164.66086002 116.20263321 -162.69665127 121.01333534 -160 126 C-159.55398437 126.84949219 -159.10796875 127.69898438 -158.6484375 128.57421875 C-155.19469644 134.4108482 -150.9697971 137.8720552 -145 141 C-144.23429688 141.4021875 -143.46859375 141.804375 -142.6796875 142.21875 C-133.63733252 146.18718165 -123.70854603 145.8098228 -114 146 C-113.87818359 145.01 -113.87818359 145.01 -113.75390625 144 C-112.74135585 139.9707839 -110.90698292 136.64106741 -108.9375 133 C-108.5041333 132.18966309 -108.0707666 131.37932617 -107.62426758 130.54443359 C-106.09188418 127.6913205 -104.54648375 124.84549385 -103 122 C-102.39607422 120.88270508 -101.79214844 119.76541016 -101.16992188 118.61425781 C-92.59672481 102.76453035 -83.72142306 87.18200749 -74 72 C-73.51160645 71.23236328 -73.02321289 70.46472656 -72.52001953 69.67382812 C-69.38826191 64.75474898 -66.21476125 59.86520802 -63 55 C-62.62456055 54.42878418 -62.24912109 53.85756836 -61.86230469 53.26904297 C-24.75686007 -2.88830034 -24.75686007 -2.88830034 0 0 Z " fill="#FBFBFB" transform="translate(392,124)"/>
<path d="M0 0 C3.85110364 2.63496565 4.7882822 5.60495578 6 10 C7.81632748 29.89512196 3.28000147 50.22096648 -3 69 C-3.30550781 69.96421875 -3.61101562 70.9284375 -3.92578125 71.921875 C-9.34538345 88.06130712 -18.21937836 102.9369027 -29 116 C-30.31285993 117.68721999 -31.62536122 119.37471911 -32.9375 121.0625 C-44.54766448 135.51873592 -59.2962712 146.71561142 -75.3125 155.875 C-75.99465576 156.26880859 -76.67681152 156.66261719 -77.37963867 157.06835938 C-80.9045178 159.04315935 -83.92160514 160.51090816 -88 161 C-88.12818115 161.57782227 -88.2563623 162.15564453 -88.38842773 162.75097656 C-88.99585103 164.98474239 -89.79023509 166.89711383 -90.78515625 168.984375 C-91.15189453 169.75652344 -91.51863281 170.52867187 -91.89648438 171.32421875 C-92.28126953 172.12472656 -92.66605469 172.92523438 -93.0625 173.75 C-93.42021484 174.50410156 -93.77792969 175.25820313 -94.14648438 176.03515625 C-97.6417452 183.36141479 -101.29307738 190.6093904 -104.9312439 197.86529541 C-106.34576025 200.69061219 -107.75394238 203.51905802 -109.16145325 206.34786987 C-110.549435 209.13731382 -111.93948823 211.92572333 -113.32958984 214.71411133 C-114.03795577 216.13597147 -114.74561651 217.55818311 -115.45263672 218.98071289 C-116.49520203 221.07792231 -117.54031381 223.17384536 -118.5859375 225.26953125 C-118.90049896 225.90381546 -119.21506042 226.53809967 -119.53915405 227.19160461 C-120.90352587 229.92069833 -122.30402139 232.45603208 -124 235 C-124 234.34 -124 233.68 -124 233 C-125.423125 232.814375 -125.423125 232.814375 -126.875 232.625 C-130 232 -130 232 -132 230 C-131.625 227.375 -131.625 227.375 -131 225 C-130.34 225 -129.68 225 -129 225 C-128.88398438 224.26523437 -128.76796875 223.53046875 -128.6484375 222.7734375 C-127.99443109 219.97618116 -127.08731526 218.07991714 -125.625 215.625 C-123.43341606 211.83260693 -121.64071028 208.05859912 -120 204 C-119.34 204 -118.68 204 -118 204 C-118.020625 203.05125 -118.04125 202.1025 -118.0625 201.125 C-118 198 -118 198 -117 196 C-116.34 196 -115.68 196 -115 196 C-114.731875 195.13375 -114.46375 194.2675 -114.1875 193.375 C-113 190 -113 190 -111.5 187.0625 C-109.86123279 183.71668362 -108.93521383 180.59697627 -108 177 C-107.34 177 -106.68 177 -106 177 C-105.67 175.35 -105.34 173.7 -105 172 C-105.90093384 171.92483154 -105.90093384 171.92483154 -106.82006836 171.84814453 C-109.52681499 171.61683453 -112.23206122 171.37111595 -114.9375 171.125 C-115.88302734 171.04636719 -116.82855469 170.96773437 -117.80273438 170.88671875 C-118.70185547 170.80292969 -119.60097656 170.71914063 -120.52734375 170.6328125 C-121.35999756 170.55949707 -122.19265137 170.48618164 -123.05053711 170.41064453 C-123.69385986 170.27513184 -124.33718262 170.13961914 -125 170 C-125.33 169.34 -125.66 168.68 -126 168 C-125.0625 165.375 -125.0625 165.375 -124 163 C-124.969375 162.97421875 -125.93875 162.9484375 -126.9375 162.921875 C-146.53359037 162.18868795 -163.32328688 157.36691373 -177.81640625 143.46875 C-189.48137328 130.28045096 -192.75509604 113.222644 -192.13183594 96.11376953 C-190.73146348 73.66113119 -178.76859893 47.65637594 -162.25 32.375 C-154.89985811 26.24751228 -146.83831109 21.5962783 -138 18 C-136.98679688 17.52433594 -135.97359375 17.04867187 -134.9296875 16.55859375 C-118.95575219 9.7339087 -95.71945569 6.07545139 -79 12 C-78.01 12.66 -77.02 13.32 -76 14 C-77.875 17.875 -77.875 17.875 -79 19 C-85.72 18.28 -85.72 18.28 -87 17 C-108.99893671 18.08191492 -127.13017041 31.39755687 -141.75 46.8125 C-157.72796133 65.37906959 -166.7132632 85.84381348 -165.25878906 110.55615234 C-164.66086002 116.20263321 -162.69665127 121.01333534 -160 126 C-159.55398437 126.84949219 -159.10796875 127.69898438 -158.6484375 128.57421875 C-155.19469644 134.4108482 -150.9697971 137.8720552 -145 141 C-144.23429687 141.4021875 -143.46859375 141.804375 -142.6796875 142.21875 C-133.63733252 146.18718165 -123.70854603 145.8098228 -114 146 C-113.87818359 145.01 -113.87818359 145.01 -113.75390625 144 C-112.74135585 139.9707839 -110.90698292 136.64106741 -108.9375 133 C-108.5041333 132.18966309 -108.0707666 131.37932617 -107.62426758 130.54443359 C-106.09188418 127.6913205 -104.54648375 124.84549385 -103 122 C-102.39607422 120.88270508 -101.79214844 119.76541016 -101.16992188 118.61425781 C-92.59672481 102.76453035 -83.72142306 87.18200749 -74 72 C-73.51160645 71.23236328 -73.02321289 70.46472656 -72.52001953 69.67382812 C-69.38826191 64.75474898 -66.21476125 59.86520802 -63 55 C-62.62456055 54.42878418 -62.24912109 53.85756836 -61.86230469 53.26904297 C-24.75686007 -2.88830034 -24.75686007 -2.88830034 0 0 Z " fill="#FAFAFA" transform="translate(392,124)"/>
<path d="M0 0 C-2.38363563 13.40882522 -14.27040394 24.31681261 -24.8671875 31.92578125 C-40.90917685 42.54709839 -59.54760826 45.63816878 -78.44921875 42.30859375 C-92.4158963 39.36472505 -104.07937994 33.04025291 -112 21 C-115.11229537 15.39786834 -116.01826294 10.29741252 -115 4 C-112.45714555 -2.94064137 -107.25619357 -6.52433691 -101 -10 C-100.35675781 -10.38027344 -99.71351563 -10.76054687 -99.05078125 -11.15234375 C-70.04222445 -26.25503049 -26.05227344 -16.69542174 0 0 Z " fill="#1A1A1A" transform="translate(234,359)"/>
<path d="M0 0 C-2.68782817 1.37713443 -5.39939602 2.59209889 -8.1875 3.75 C-14.85946804 6.73366888 -22.12883581 10.12353146 -25.40625 17.02734375 C-27.60656037 24.33758546 -25.99953327 30.11198264 -22.484375 36.67578125 C-15.55126913 47.53156544 -3.85330079 53.14473973 8.375 56.25 C29.17760198 59.8479343 47.8812506 55.8497347 65.48828125 44.37890625 C74.96280293 37.55528701 81.30019916 28.01669917 87 18 C87.99 16.515 87.99 16.515 89 15 C89.99 15.66 90.98 16.32 92 17 C92 17.66 92 18.32 92 19 C93.06541016 19.37511719 93.06541016 19.37511719 94.15234375 19.7578125 C97.30599286 21.13347837 99.79474872 22.83479391 102.5625 24.875 C103.49191406 25.55304688 104.42132813 26.23109375 105.37890625 26.9296875 C107.77474485 28.82207865 109.89622695 30.79227581 112 33 C108.03671299 41.17525086 103.31453961 47.50101508 97 54 C96.37351563 54.69996094 95.74703125 55.39992188 95.1015625 56.12109375 C89.57247845 62.10510243 83.05433366 66.01201894 76 70 C75.22269531 70.46277344 74.44539063 70.92554688 73.64453125 71.40234375 C68.0068593 74.52551423 62.01426322 76.37961315 55.875 78.25 C54.60354126 78.63792725 54.60354126 78.63792725 53.30639648 79.03369141 C43.57901844 81.87966383 34.34127083 82.20714959 24.25 82.25 C22.45175781 82.2809375 22.45175781 82.2809375 20.6171875 82.3125 C4.19017171 82.38376688 -9.90531637 77.43626791 -22.453125 66.68359375 C-32.85330488 55.72512201 -36.51867759 42.38466942 -36.30078125 27.63671875 C-36.02008682 24.24286786 -35.61283254 21.97586609 -34 19 C-32.00669158 17.65668346 -30.00615134 16.32405988 -28 15 C-27.401875 14.05125 -26.80375 13.1025 -26.1875 12.125 C-20.36993307 3.8141901 -9.97838956 -0.31845924 0 0 Z " fill="#FBFBFB" transform="translate(146,344)"/>
<path d="M0 0 C1.32 0.33 2.64 0.66 4 1 C4.8176728 12.4474192 1.42191307 23.89454899 -3.59375 34.109375 C-4.97099676 36.94038222 -6.21159343 39.80108983 -7.43920898 42.69873047 C-18.11384052 67.77232681 -35.67639083 105.24335044 -61 118 C-64.5625 118.875 -64.5625 118.875 -67 119 C-65.43042634 113.61860458 -63.0070366 108.91639906 -60.375 104 C-59.9320459 103.1649292 -59.4890918 102.3298584 -59.03271484 101.46948242 C-55.74127229 95.29817527 -52.32191348 89.21169473 -48.7890625 83.17578125 C-47.1204101 80.21374107 -45.5994041 77.21828807 -44.09423828 74.17211914 C-39.97344885 65.99214067 -35.41573896 58.02294477 -31 50 C-30.42330566 48.94844727 -29.84661133 47.89689453 -29.25244141 46.81347656 C-20.34285915 30.59226647 -11.24613313 14.72673405 0 0 Z " fill="#181818" transform="translate(380,144)"/>
<path d="M0 0 C1.8125 0.5 1.8125 0.5 4 2 C6.42050612 7.40501366 7.52327737 12.04979505 7.4375 18 C7.43065186 18.75982178 7.42380371 19.51964355 7.41674805 20.30249023 C6.97425277 36.89026258 3.24457457 53.31719449 -2 69 C-2.30550781 69.96421875 -2.61101562 70.9284375 -2.92578125 71.921875 C-8.34538345 88.06130712 -17.21937836 102.9369027 -28 116 C-29.31285993 117.68721999 -30.62536122 119.37471911 -31.9375 121.0625 C-43.54766448 135.51873592 -58.2962712 146.71561142 -74.3125 155.875 C-74.99465576 156.26880859 -75.67681152 156.66261719 -76.37963867 157.06835938 C-79.9045178 159.04315935 -82.92160514 160.51090816 -87 161 C-87.12818115 161.57782227 -87.2563623 162.15564453 -87.38842773 162.75097656 C-87.99585103 164.98474239 -88.79023509 166.89711383 -89.78515625 168.984375 C-90.33526367 170.14259766 -90.33526367 170.14259766 -90.89648438 171.32421875 C-91.28126953 172.12472656 -91.66605469 172.92523438 -92.0625 173.75 C-92.42021484 174.50410156 -92.77792969 175.25820313 -93.14648438 176.03515625 C-96.6417452 183.36141479 -100.29307738 190.6093904 -103.9312439 197.86529541 C-105.34576025 200.69061219 -106.75394238 203.51905802 -108.16145325 206.34786987 C-109.549435 209.13731382 -110.93948823 211.92572333 -112.32958984 214.71411133 C-113.03795577 216.13597147 -113.74561651 217.55818311 -114.45263672 218.98071289 C-115.49520203 221.07792231 -116.54031381 223.17384536 -117.5859375 225.26953125 C-117.90049896 225.90381546 -118.21506042 226.53809967 -118.53915405 227.19160461 C-119.90352587 229.92069833 -121.30402139 232.45603208 -123 235 C-123 234.34 -123 233.68 -123 233 C-124.423125 232.814375 -124.423125 232.814375 -125.875 232.625 C-129 232 -129 232 -131 230 C-130.625 227.375 -130.625 227.375 -130 225 C-129.34 225 -128.68 225 -128 225 C-127.88398438 224.26523437 -127.76796875 223.53046875 -127.6484375 222.7734375 C-126.99443109 219.97618116 -126.08731526 218.07991714 -124.625 215.625 C-122.43341606 211.83260693 -120.64071028 208.05859912 -119 204 C-118.34 204 -117.68 204 -117 204 C-117.020625 203.05125 -117.04125 202.1025 -117.0625 201.125 C-117 198 -117 198 -116 196 C-115.34 196 -114.68 196 -114 196 C-113.731875 195.13375 -113.46375 194.2675 -113.1875 193.375 C-112 190 -112 190 -110.5 187.0625 C-108.86123279 183.71668362 -107.93521383 180.59697627 -107 177 C-106.34 177 -105.68 177 -105 177 C-104.67 175.35 -104.34 173.7 -104 172 C-104.90093384 171.92483154 -104.90093384 171.92483154 -105.82006836 171.84814453 C-108.52681499 171.61683453 -111.23206122 171.37111595 -113.9375 171.125 C-114.88302734 171.04636719 -115.82855469 170.96773437 -116.80273438 170.88671875 C-117.70185547 170.80292969 -118.60097656 170.71914063 -119.52734375 170.6328125 C-120.35999756 170.55949707 -121.19265137 170.48618164 -122.05053711 170.41064453 C-122.69385986 170.27513184 -123.33718262 170.13961914 -124 170 C-124.33 169.34 -124.66 168.68 -125 168 C-124.0625 165.375 -124.0625 165.375 -123 163 C-125.64 163 -128.28 163 -131 163 C-131 162.67 -131 162.34 -131 162 C-129.61663452 162.02356567 -129.61663452 162.02356567 -128.20532227 162.04760742 C-124.74432619 162.09910193 -121.2837443 162.1365261 -117.82250977 162.16479492 C-116.33188402 162.17977042 -114.84130149 162.20015819 -113.35083008 162.22631836 C-101.37126971 162.44997497 -101.37126971 162.44997497 -90 159 C-89.34507568 158.71358643 -88.69015137 158.42717285 -88.01538086 158.13208008 C-86.04539316 157.23937987 -84.11607518 156.2912234 -82.1875 155.3125 C-81.50389404 154.96944824 -80.82028809 154.62639648 -80.1159668 154.27294922 C-74.6279079 151.45688539 -69.58325862 148.23733498 -64.55078125 144.6640625 C-62.09003984 143.05873962 -59.75982438 141.984586 -57 141 C-57 140.34 -57 139.68 -57 139 C-55.50390625 137.78125 -55.50390625 137.78125 -53.5625 136.5 C-50.77468153 134.7134637 -50.77468153 134.7134637 -49 132 C-48.01 132 -47.02 132 -46 132 C-45.95875 131.443125 -45.9175 130.88625 -45.875 130.3125 C-44.51022892 126.705605 -42.08919824 125.26961504 -39 123 C-38.34 123 -37.68 123 -37 123 C-37 122.01 -37 121.02 -37 120 C-36.34 120 -35.68 120 -35 120 C-34.7525 119.46375 -34.505 118.9275 -34.25 118.375 C-32.69347463 115.4176018 -30.96564327 112.70275949 -29 110 C-28.34 110 -27.68 110 -27 110 C-26.7525 109.13375 -26.505 108.2675 -26.25 107.375 C-24.92199976 103.78939936 -23.31369152 101.03672013 -21 98 C-20.34 98 -19.68 98 -19 98 C-18.896875 97.484375 -18.79375 96.96875 -18.6875 96.4375 C-17.4771612 92.14629879 -15.55427365 88.1660512 -13.64453125 84.1484375 C-8.04833868 72.32306399 -3.89687988 60.43036863 -0.91015625 47.71875 C-0.16646166 44.68013518 0.71536798 41.78055525 1.6875 38.8125 C4.92337305 26.98358628 6.04884385 12.92945606 0 2 C0 1.34 0 0.68 0 0 Z " fill="#CBCBCB" transform="translate(391,124)"/>
<path d="M0 0 C-0.3707666 0.47743652 -0.7415332 0.95487305 -1.12353516 1.44677734 C-4.86300565 6.33594241 -8.20456383 11.35226408 -11.375 16.625 C-11.85340332 17.41495361 -12.33180664 18.20490723 -12.82470703 19.01879883 C-16.58020058 25.24501181 -20.22948103 31.52405782 -23.79394531 37.86181641 C-25.26975903 40.4782489 -26.75613105 43.08859057 -28.2421875 45.69921875 C-29.41162306 47.75771893 -30.58089322 49.81631308 -31.75 51.875 C-32.3054248 52.85041748 -32.86084961 53.82583496 -33.43310547 54.83081055 C-36.44692091 60.15126628 -39.33082734 65.49879768 -42 71 C-44.36532167 75.82525621 -46.93042886 80.50500533 -49.5625 85.1875 C-53.30984681 91.90564684 -57.00631337 98.64911314 -60.625 105.4375 C-61.06271729 106.24791748 -61.50043457 107.05833496 -61.95141602 107.89331055 C-62.35158936 108.649104 -62.7517627 109.40489746 -63.1640625 110.18359375 C-63.51936035 110.84931396 -63.8746582 111.51503418 -64.24072266 112.20092773 C-65.1944141 114.13519977 -65.1944141 114.13519977 -65 117 C-66.5811292 117.50692692 -68.16501383 118.00526443 -69.75 118.5 C-70.63171875 118.7784375 -71.5134375 119.056875 -72.421875 119.34375 C-75 120 -75 120 -79 120 C-78.40931419 116.12232141 -77.24684497 113.27660401 -75.3125 109.875 C-74.51392578 108.45380859 -74.51392578 108.45380859 -73.69921875 107.00390625 C-73.13847656 106.01261719 -72.57773437 105.02132812 -72 104 C-70.87161072 101.93935231 -69.74645228 99.87693116 -68.625 97.8125 C-67.75 96.20833333 -66.875 94.60416667 -66 93 C-65.34 93 -64.68 93 -64 93 C-63.67 91.02 -63.34 89.04 -63 87 C-62.34 87 -61.68 87 -61 87 C-60.731875 86.0925 -60.46375 85.185 -60.1875 84.25 C-59.08231782 81.22529089 -57.9367553 79.50164226 -56 77 C-55.72285156 76.28199219 -55.44570313 75.56398438 -55.16015625 74.82421875 C-53.72207419 71.32343313 -51.85223033 68.12901398 -49.9375 64.875 C-47.11484561 60.10966103 -47.11484561 60.10966103 -45 55 C-44.34 55 -43.68 55 -43 55 C-42.79375 54.195625 -42.5875 53.39125 -42.375 52.5625 C-40.89044257 48.71614665 -38.95912609 45.77695127 -36.62890625 42.40234375 C-35.05609384 40.08272832 -33.61045153 37.72636485 -32.1875 35.3125 C-16.46698944 8.89216549 -16.46698944 8.89216549 -9 4 C-8.34 4 -7.68 4 -7 4 C-7 3.01 -7 2.02 -7 1 C-3.375 -1.125 -3.375 -1.125 0 0 Z " fill="#D0D0D0" transform="translate(379,147)"/>
<path d="M0 0 C-3.03301929 1.63371062 -6.01394634 2.64866462 -9.3125 3.625 C-34.61139149 12.04771721 -53.3335837 31.32539178 -65.859375 54.4296875 C-72.65625432 68.46086907 -76.38755941 85.52249044 -72.05078125 100.9609375 C-69.77953505 107.10834836 -66.70150655 112.60637616 -63 118 C-64.921875 117.62890625 -64.921875 117.62890625 -67 117 C-68.25 114.9375 -68.25 114.9375 -69 113 C-69.66 113 -70.32 113 -71 113 C-72.13652342 111.00652577 -73.25866377 109.00484873 -74.375 107 C-75.00148437 105.88625 -75.62796875 104.7725 -76.2734375 103.625 C-80.36421499 95.50738064 -80.28205965 87.66846766 -80.1875 78.75 C-80.18685547 77.57953125 -80.18621094 76.4090625 -80.18554688 75.203125 C-80.13704289 65.80413154 -80.13704289 65.80413154 -79 62 C-78.34 62 -77.68 62 -77 62 C-76.34 58.7 -75.68 55.4 -75 52 C-74.34 52 -73.68 52 -73 52 C-72.690625 50.72125 -72.38125 49.4425 -72.0625 48.125 C-71.52394756 45.89898325 -71.0263 44.05260001 -70 42 C-69.34 42 -68.68 42 -68 42 C-67.62875 40.948125 -67.62875 40.948125 -67.25 39.875 C-65.82819762 36.60485452 -64.12753712 33.858878 -62 31 C-61.34 31 -60.68 31 -60 31 C-60 30.34 -60 29.68 -60 29 C-59.34 29 -58.68 29 -58 29 C-57.7525 28.401875 -57.505 27.80375 -57.25 27.1875 C-55.81927475 24.68373081 -54.4308418 23.51927612 -52 22 C-51.34 22 -50.68 22 -50 22 C-49.773125 21.401875 -49.54625 20.80375 -49.3125 20.1875 C-47.64390958 17.40651597 -45.8716168 16.4358084 -43 15 C-42.34 15 -41.68 15 -41 15 C-41 14.34 -41 13.68 -41 13 C-39.35 12.67 -37.7 12.34 -36 12 C-36 11.34 -36 10.68 -36 10 C-30.70769231 6.92307692 -30.70769231 6.92307692 -27.125 7.3125 C-26.42375 7.539375 -25.7225 7.76625 -25 8 C-25 7.34 -25 6.68 -25 6 C-21.38079355 3.5871957 -17.79876463 2.82678754 -13.625 1.875 C-12.86960937 1.69324219 -12.11421875 1.51148438 -11.3359375 1.32421875 C-7.48737403 0.42936046 -3.98051023 -0.2378791 0 0 Z " fill="#CECECE" transform="translate(300,140)"/>
<path d="M0 0 C1.51400391 0.01740234 1.51400391 0.01740234 3.05859375 0.03515625 C4.07050781 0.04417969 5.08242188 0.05320312 6.125 0.0625 C6.90746094 0.07410156 7.68992187 0.08570313 8.49609375 0.09765625 C6.86548378 5.80479113 4.64962436 10.98544735 1.95703125 16.265625 C1.2364251 17.69243017 0.51605736 19.11935576 -0.20410156 20.54638672 C-0.5805481 21.29023621 -0.95699463 22.03408569 -1.34484863 22.80047607 C-3.29668993 26.66890423 -5.2229318 30.55003899 -7.15234375 34.4296875 C-8.33050742 36.79356756 -9.50924164 39.15716255 -10.68798828 41.52075195 C-11.49336338 43.13662036 -12.29803178 44.75284117 -13.10205078 46.36938477 C-14.28361445 48.74458821 -15.46772266 51.11850777 -16.65234375 53.4921875 C-17.01065277 54.21396683 -17.36896179 54.93574615 -17.73812866 55.67939758 C-19.2022211 58.60791316 -20.68509618 61.36944115 -22.50390625 64.09765625 C-22.50390625 63.43765625 -22.50390625 62.77765625 -22.50390625 62.09765625 C-23.92703125 61.91203125 -23.92703125 61.91203125 -25.37890625 61.72265625 C-28.50390625 61.09765625 -28.50390625 61.09765625 -30.50390625 59.09765625 C-30.12890625 56.47265625 -30.12890625 56.47265625 -29.50390625 54.09765625 C-28.84390625 54.09765625 -28.18390625 54.09765625 -27.50390625 54.09765625 C-27.32988281 52.99550781 -27.32988281 52.99550781 -27.15234375 51.87109375 C-26.49833734 49.07383741 -25.59122151 47.17757339 -24.12890625 44.72265625 C-21.93732231 40.93026318 -20.14461653 37.15625537 -18.50390625 33.09765625 C-17.84390625 33.09765625 -17.18390625 33.09765625 -16.50390625 33.09765625 C-16.52453125 32.14890625 -16.54515625 31.20015625 -16.56640625 30.22265625 C-16.50390625 27.09765625 -16.50390625 27.09765625 -15.50390625 25.09765625 C-14.84390625 25.09765625 -14.18390625 25.09765625 -13.50390625 25.09765625 C-13.23578125 24.23140625 -12.96765625 23.36515625 -12.69140625 22.47265625 C-11.50390625 19.09765625 -11.50390625 19.09765625 -10.00390625 16.16015625 C-8.36513904 12.81433987 -7.43912008 9.69463252 -6.50390625 6.09765625 C-5.84390625 6.09765625 -5.18390625 6.09765625 -4.50390625 6.09765625 C-4.35953125 5.29328125 -4.21515625 4.48890625 -4.06640625 3.66015625 C-3.29113376 0.12835935 -3.29113376 0.12835935 0 0 Z " fill="#CFCFCF" transform="translate(290.50390625,294.90234375)"/>
<path d="M0 0 C1.32 0.66 2.64 1.32 4 2 C4 2.66 4 3.32 4 4 C5.06541016 4.37511719 5.06541016 4.37511719 6.15234375 4.7578125 C9.30599286 6.13347837 11.79474872 7.83479391 14.5625 9.875 C15.49191406 10.55304688 16.42132813 11.23109375 17.37890625 11.9296875 C19.77474485 13.82207865 21.89622695 15.79227581 24 18 C20.03671299 26.17525086 15.31453961 32.50101508 9 39 C8.37351563 39.69996094 7.74703125 40.39992188 7.1015625 41.12109375 C1.57247845 47.10510243 -4.94566634 51.01201894 -12 55 C-12.77730469 55.46277344 -13.55460937 55.92554688 -14.35546875 56.40234375 C-22.84452866 61.10513269 -35.20066087 66 -45 66 C-45 65.34 -45 64.68 -45 64 C-42.36 63.67 -39.72 63.34 -37 63 C-37 62.34 -37 61.68 -37 61 C-36.03513672 60.70609375 -36.03513672 60.70609375 -35.05078125 60.40625 C-27.8987594 58.03924705 -22.02779189 54.77401421 -15.75 50.70703125 C-13 49 -13 49 -10 48 C-10 47.34 -10 46.68 -10 46 C-4.52380952 41 -4.52380952 41 -2 41 C-1.7525 40.4225 -1.505 39.845 -1.25 39.25 C0.18299988 36.67060021 1.78424676 34.93878408 4 33 C4.66 33 5.32 33 6 33 C6.268125 32.4225 6.53625 31.845 6.8125 31.25 C8.02929189 28.94449957 9.30333879 26.97943808 11 25 C11.66 25 12.32 25 13 25 C10.78602515 20.74466528 8.22823021 18.33985669 4.4375 15.4375 C-1.96347894 10.532633 -1.96347894 10.532633 -3 7 C-1.625 3.25 -1.625 3.25 0 0 Z " fill="#CECECE" transform="translate(234,359)"/>
<path d="M0 0 C1.32 0.66 2.64 1.32 4 2 C4 2.66 4 3.32 4 4 C5.06541016 4.37511719 5.06541016 4.37511719 6.15234375 4.7578125 C9.30599286 6.13347837 11.79474872 7.83479391 14.5625 9.875 C15.49191406 10.55304688 16.42132813 11.23109375 17.37890625 11.9296875 C20 14 20 14 24 18 C21.03 23.445 21.03 23.445 18 29 C17.19369141 27.93458984 17.19369141 27.93458984 16.37109375 26.84765625 C13.81457556 23.77730739 11.02419796 21.10339791 8.0625 18.4375 C7.55009766 17.96892578 7.03769531 17.50035156 6.50976562 17.01757812 C3.43145753 14.22089415 0.27476558 11.56312223 -3 9 C-2.01 6.03 -1.02 3.06 0 0 Z " fill="#B7B7B7" transform="translate(234,359)"/>
<path d="M0 0 C14.52 0 29.04 0 44 0 C42 5 42 5 40 10 C36.37479395 9.85903487 32.74989159 9.71131601 29.125 9.5625 C28.11179687 9.52318359 27.09859375 9.48386719 26.0546875 9.44335938 C21.13212517 9.23825261 16.21574997 8.9878725 11.3046875 8.58984375 C10.49757324 8.52531006 9.69045898 8.46077637 8.85888672 8.39428711 C8.2454541 8.26417236 7.63202148 8.13405762 7 8 C6.67 7.34 6.34 6.68 6 6 C6.9375 3.375 6.9375 3.375 8 1 C5.36 1 2.72 1 0 1 C0 0.67 0 0.34 0 0 Z " fill="#B8B8B8" transform="translate(260,286)"/>
<path d="M0 0 C0.66 0 1.32 0 2 0 C3.49583672 8.47640809 1.5554783 13.40946727 -2 21 C-2.66 21 -3.32 21 -4 21 C-3.65772428 23.97065509 -3.65772428 23.97065509 -3 27 C-2.34 27.33 -1.68 27.66 -1 28 C-6.02792025 32.71367524 -11.77659699 38 -19 38 C-17.42742707 32.58722137 -14.96718465 27.87533219 -12.3125 22.9375 C-11.86986816 22.10565186 -11.42723633 21.27380371 -10.97119141 20.41674805 C-9.65250235 17.94176184 -8.32728733 15.47038382 -7 13 C-6.6198877 12.29069336 -6.23977539 11.58138672 -5.84814453 10.85058594 C-3.90723956 7.22910867 -1.95841701 3.61204726 0 0 Z " fill="#212121" transform="translate(332,225)"/>
<path d="M0 0 C4.88155403 7.32233104 3.83654393 18.51283894 2.5390625 27.0234375 C-1.07666091 40.16765553 -8.26722412 49.51638126 -19.9375 56.25 C-28.67508159 61.09039894 -35.97370499 63.46551001 -46 64 C-45.67 63.34 -45.34 62.68 -45 62 C-43.0390625 61.65625 -43.0390625 61.65625 -40.625 61.5 C-37.10348536 61.27058537 -36.07060704 61.04707136 -33 59 C-30.3125 58.875 -30.3125 58.875 -28 59 C-27.67 58.01 -27.34 57.02 -27 56 C-25.00882592 55.30741771 -23.0078864 54.64252365 -21 54 C-19.43750191 52.68798827 -19.43750191 52.68798827 -18 51 C-17.0925 50.278125 -16.185 49.55625 -15.25 48.8125 C-10.15701105 44.59805165 -4.75248848 39.53200252 -3 33 C-2.83419434 32.4004248 -2.66838867 31.80084961 -2.49755859 31.18310547 C-0.91613792 24.9106644 -0.79548333 19.00489268 -0.9375 12.5625 C-0.97183262 10.60554076 -1.00199622 8.64850249 -1.02734375 6.69140625 C-1.05429321 5.41052124 -1.05429321 5.41052124 -1.08178711 4.10375977 C-1 2 -1 2 0 0 Z " fill="#C7C7C7" transform="translate(499,424)"/>
<path d="M0 0 C1.32 0.33 2.64 0.66 4 1 C4.62774507 9.78843098 2.30784711 17.60314556 0 26 C-0.66 25.34 -1.32 24.68 -2 24 C-2.99 24 -3.98 24 -5 24 C-5.144375 23.401875 -5.28875 22.80375 -5.4375 22.1875 C-5.8872439 20.43849596 -6.42892341 18.71322977 -7 17 C-8.65 18.32 -10.3 19.64 -12 21 C-12.66 20.67 -13.32 20.34 -14 20 C-9.52248841 13.18145444 -5.00442762 6.44509618 0 0 Z M-8 20 C-7.34 20.33 -6.68 20.66 -6 21 C-6.99 21.99 -7.98 22.98 -9 24 C-8.67 22.68 -8.34 21.36 -8 20 Z " fill="#202020" transform="translate(380,144)"/>
<path d="M0 0 C0 2.31 0 4.62 0 7 C-0.33 7 -0.66 7 -1 7 C-1.165 7.928125 -1.33 8.85625 -1.5 9.8125 C-3.14610093 15.59161695 -6.9756063 20.62755063 -11 25 C-13.76171875 26.32421875 -13.76171875 26.32421875 -16 27 C-16.66 26.34 -17.32 25.68 -18 25 C-18.99 25.33 -19.98 25.66 -21 26 C-20.34 24.02 -19.68 22.04 -19 20 C-18.34 20 -17.68 20 -17 20 C-16.7525 19.29875 -16.505 18.5975 -16.25 17.875 C-14.82819762 14.60485452 -13.12753712 11.858878 -11 9 C-10.34 9 -9.68 9 -9 9 C-9 8.34 -9 7.68 -9 7 C-8.34 7 -7.68 7 -7 7 C-6.7525 6.401875 -6.505 5.80375 -6.25 5.1875 C-4.96994761 2.94740832 -2.87874755 0 0 0 Z " fill="#D0D0D0" transform="translate(249,162)"/>
<path d="M0 0 C0.33 0 0.66 0 1 0 C1.01417969 1.07636719 1.02835938 2.15273437 1.04296875 3.26171875 C1.40170372 16.48171041 4.43194526 26.97226309 12 38 C10.078125 37.62890625 10.078125 37.62890625 8 37 C6.75 34.9375 6.75 34.9375 6 33 C5.34 33 4.68 33 4 33 C2.81719526 30.96630002 1.65416773 28.92487318 0.5 26.875 C-0.47453125 25.16957031 -0.47453125 25.16957031 -1.46875 23.4296875 C-3.04621333 19.89649158 -3.4861658 17.81198186 -3 14 C-2.34 13.34 -1.68 12.68 -1 12 C-0.53603307 9.10776497 -0.53603307 9.10776497 -0.375 5.875 C-0.30023438 4.77929688 -0.22546875 3.68359375 -0.1484375 2.5546875 C-0.09945312 1.71164063 -0.05046875 0.86859375 0 0 Z " fill="#CACACA" transform="translate(225,220)"/>
<path d="M0 0 C1.8125 0.5 1.8125 0.5 4 2 C6.60654485 7.72936186 7.46028094 12.37578186 7.3125 18.625 C7.30412109 19.39827637 7.29574219 20.17155273 7.28710938 20.96826172 C7.14090724 28.0809957 6.26102662 34.9967986 5 42 C2.90197329 38.58981933 2.85804511 36.22378616 3.1640625 32.2734375 C3.23367188 31.15839844 3.30328125 30.04335937 3.375 28.89453125 C3.54005079 26.57092563 3.71434664 24.24795596 3.8984375 21.92578125 C4.30684829 15.08490048 3.8608902 10.13546349 0.88818359 3.91259766 C0 2 0 2 0 0 Z " fill="#D0D0D0" transform="translate(391,124)"/>
<path d="M0 0 C3.96 0 7.92 0 12 0 C10.66666667 3.33333333 9.33333333 6.66666667 8 10 C4.37 9.67 0.74 9.34 -3 9 C-3 7.68 -3 6.36 -3 5 C-2.34 5 -1.68 5 -1 5 C-0.67 3.35 -0.34 1.7 0 0 Z " fill="#A7A7A7" transform="translate(292,286)"/>
<path d="M0 0 C-2.68782817 1.37713443 -5.39939602 2.59209889 -8.1875 3.75 C-14.91990623 6.76069652 -21.95826374 10.10876075 -25.359375 16.98828125 C-26.60447999 20.89821462 -26.83581893 24.92010049 -27 29 C-27.66 29 -28.32 29 -29 29 C-29.46928132 21.90863791 -29.68287785 15.70876604 -25 10 C-17.89204231 3.55354932 -9.66897422 -0.29092489 0 0 Z " fill="#D1D1D1" transform="translate(146,344)"/>
<path d="M0 0 C-0.3403125 0.42667969 -0.680625 0.85335937 -1.03125 1.29296875 C-5.8805801 7.54808869 -9.93116695 14.22549624 -14 21 C-14.66 20.34 -15.32 19.68 -16 19 C-16 18.01 -16 17.02 -16 16 C-15.34 16 -14.68 16 -14 16 C-14 15.34 -14 14.68 -14 14 C-14.66 13.67 -15.32 13.34 -16 13 C-15.34 12.34 -14.68 11.68 -14 11 C-13.87625 10.360625 -13.7525 9.72125 -13.625 9.0625 C-12.78303385 6.28401171 -11.43891413 5.47812978 -9 4 C-8.34 4 -7.68 4 -7 4 C-7 3.01 -7 2.02 -7 1 C-3.375 -1.125 -3.375 -1.125 0 0 Z " fill="#CACACA" transform="translate(379,147)"/>
<path d="M0 0 C0.66 0.33 1.32 0.66 2 1 C-3.17669373 8.76504059 -11.30818963 12.9988408 -20 16 C-23.47745451 16.53659286 -26.53617738 16.59950776 -30 16 C-30 15.67 -30 15.34 -30 15 C-28.515 14.62294922 -28.515 14.62294922 -27 14.23828125 C-22.74883539 13.02045517 -18.93203508 11.1874144 -15 9.1875 C-13.99066406 8.6915332 -13.99066406 8.6915332 -12.9609375 8.18554688 C-8.30077611 5.8419715 -4.18088152 3.11932957 0 0 Z " fill="#CCCCCC" transform="translate(324,270)"/>
<path d="M0 0 C2.475 0.99 2.475 0.99 5 2 C3.02 5.96 1.04 9.92 -1 14 C-5 9 -5 9 -5 6.4375 C-3.8239412 3.57085668 -2.32031952 2.02092346 0 0 Z " fill="#A2A2A2" transform="translate(253,374)"/>
<path d="M0 0 C0.33 0 0.66 0 1 0 C1.05437607 1.58294782 1.09296271 3.16644256 1.125 4.75 C1.14820313 5.63171875 1.17140625 6.5134375 1.1953125 7.421875 C0.98795928 10.15893747 0.51549072 11.7241953 -1 14 C-1.845625 14.309375 -2.69125 14.61875 -3.5625 14.9375 C-4.366875 15.288125 -5.17125 15.63875 -6 16 C-6.89386164 18.54775306 -6.89386164 18.54775306 -7 21 C-7.99 21 -8.98 21 -10 21 C-8.51991304 15.99886406 -6.3681664 11.67084403 -3.875 7.125 C-3.50246094 6.43664062 -3.12992187 5.74828125 -2.74609375 5.0390625 C-1.83500474 3.35705202 -0.91809685 1.67819564 0 0 Z " fill="#272727" transform="translate(323,242)"/>
<path d="M0 0 C0 3 0 3 -1.3125 4.38671875 C-2.875 5.59114583 -4.4375 6.79557292 -6 8 C-4.55746343 4.63408134 -2.66735273 2.48952921 0 0 Z M-6 8 C-6.33 9.32 -6.66 10.64 -7 12 C-7.66 12 -8.32 12 -9 12 C-9.33 13.98 -9.66 15.96 -10 18 C-11.28745036 18.38922918 -12.58019597 18.76098036 -13.875 19.125 C-14.95394531 19.43824219 -14.95394531 19.43824219 -16.0546875 19.7578125 C-16.69664062 19.83773438 -17.33859375 19.91765625 -18 20 C-18.66 19.34 -19.32 18.68 -20 18 C-16.25 15 -16.25 15 -14 15 C-14 14.34 -14 13.68 -14 13 C-8.52380952 8 -8.52380952 8 -6 8 Z " fill="#D8D8D8" transform="translate(238,392)"/>
<path d="M0 0 C0 2.33333333 0 4.66666667 0 7 C-0.66 7 -1.32 7 -2 7 C-1.67 8.98 -1.34 10.96 -1 13 C-1.886875 12.855625 -2.77375 12.71125 -3.6875 12.5625 C-6.97105127 12.64764699 -6.97105127 12.64764699 -8.51171875 14.55859375 C-9.75852476 16.33413125 -10.91657766 18.12078957 -12 20 C-12.33 19.34 -12.66 18.68 -13 18 C-9.55896671 11.3707889 -5.01230393 5.50130919 0 0 Z " fill="#D3D3D3" transform="translate(365,156)"/>
<path d="M0 0 C0.66 0.66 1.32 1.32 2 2 C-2.455 9.425 -2.455 9.425 -7 17 C-7.66 16.67 -8.32 16.34 -9 16 C-9 15.34 -9 14.68 -9 14 C-8.34 14 -7.68 14 -7 14 C-6.9175 12.7625 -6.835 11.525 -6.75 10.25 C-6.36472925 7.10083039 -6.07691917 6.09925054 -4.0625 3.5 C-2 2 -2 2 0 2 C0 1.34 0 0.68 0 0 Z " fill="#C6C6C6" transform="translate(378,213)"/>
<path d="M0 0 C7.92 0.33 15.84 0.66 24 1 C22.68 1.33 21.36 1.66 20 2 C20 2.66 20 3.32 20 4 C14.06 4.495 14.06 4.495 8 5 C8 3.68 8 2.36 8 1 C5.36 1 2.72 1 0 1 C0 0.67 0 0.34 0 0 Z " fill="#C2C2C2" transform="translate(260,286)"/>
<path d="M0 0 C4.34507408 2.17253704 4.97085553 3.23260992 6.45947266 7.69140625 C7.38290106 11.63537146 7.31544631 15.47133161 7.1875 19.5 C7.17396484 20.32242188 7.16042969 21.14484375 7.14648438 21.9921875 C7.11155016 23.99508221 7.05776057 25.99763356 7 28 C6.67 28 6.34 28 6 28 C5.67 22.39 5.34 16.78 5 11 C4.34 11 3.68 11 3 11 C2.01 7.37 1.02 3.74 0 0 Z " fill="#AFAFAF" transform="translate(391,124)"/>
<path d="M0 0 C1.9375 0.5625 1.9375 0.5625 4 2 C4.75 5.625 4.75 5.625 5 9 C4.01 9 3.02 9 2 9 C1.34 9.66 0.68 10.32 0 11 C-2 8 -2 8 -1.6875 4.375 C-1 1 -1 1 0 0 Z " fill="#121212" transform="translate(306,200)"/>
<path d="M0 0 C0.99 0.33 1.98 0.66 3 1 C3.66 0.67 4.32 0.34 5 0 C4.01621713 2.19459255 3.22103594 3.79664694 1.4375 5.4375 C-0.45263121 7.49199044 -0.6324247 9.27994277 -1 12 C-2.32 11.67 -3.64 11.34 -5 11 C-4.67 8.69 -4.34 6.38 -4 4 C-3.34 4.33 -2.68 4.66 -2 5 C-1.34 3.35 -0.68 1.7 0 0 Z " fill="#101010" transform="translate(332,240)"/>
<path d="M0 0 C-3.19568952 1.7201678 -6.41878245 2.84259139 -9.875 3.9375 C-14.16001452 5.33274253 -18.02451026 6.90763698 -22 9 C-22.66 9 -23.32 9 -24 9 C-24 8.34 -24 7.68 -24 7 C-23.34 6.67 -22.68 6.34 -22 6 C-22 5.34 -22 4.68 -22 4 C-19.27238489 3.32636628 -16.543201 2.66090556 -13.8125 2 C-13.04357422 1.80921875 -12.27464844 1.6184375 -11.48242188 1.421875 C-7.57921747 0.48376579 -4.04770205 -0.25957208 0 0 Z " fill="#C0C0C0" transform="translate(300,140)"/>
<path d="M0 0 C2.39184406 3.58776609 3.12754433 6.01624945 3.09765625 10.23046875 C3.09443359 11.03291016 3.09121094 11.83535156 3.08789062 12.66210938 C3.07532227 13.91217773 3.07532227 13.91217773 3.0625 15.1875 C3.05798828 16.03248047 3.05347656 16.87746094 3.04882812 17.74804688 C3.03705403 19.83206155 3.0191189 21.91603977 3 24 C2.67 24 2.34 24 2 24 C1.95101563 23.18015625 1.90203125 22.3603125 1.8515625 21.515625 C1.77679688 20.43796875 1.70203125 19.3603125 1.625 18.25 C1.55539062 17.18265625 1.48578125 16.1153125 1.4140625 15.015625 C1.0214694 12.15636207 0.34537603 10.49623986 -1 8 C-1.32142857 2.64285714 -1.32142857 2.64285714 0 0 Z " fill="#B1B1B1" transform="translate(499,424)"/>
<path d="M0 0 C0.66 0.66 1.32 1.32 2 2 C1.01 2 0.02 2 -1 2 C-1 2.99 -1 3.98 -1 5 C-2.98 5.99 -4.96 6.98 -7 8 C-7.99 7.34 -8.98 6.68 -10 6 C-10 6.66 -10 7.32 -10 8 C-12 7 -12 7 -13 5 C-7.70769231 1.92307692 -7.70769231 1.92307692 -4.125 2.3125 C-3.42375 2.539375 -2.7225 2.76625 -2 3 C-2 2.34 -2 1.68 -2 1 C-1.34 0.67 -0.68 0.34 0 0 Z " fill="#D1D1D1" transform="translate(277,145)"/>
<path d="M0 0 C3.93641485 -0.17892795 6.64318804 -0.15795055 10 2 C10.66 2.66 11.32 3.32 12 4 C8.37 4.66 4.74 5.32 1 6 C0.67 4.02 0.34 2.04 0 0 Z " fill="#272727" transform="translate(276,130)"/>
<path d="M0 0 C-2.77434469 1.41548199 -5.57821301 2.70359625 -8.4375 3.9375 C-11.79273542 5.41093398 -14.86474648 7.09984635 -18 9 C-18.66 9 -19.32 9 -20 9 C-19.00225828 6.44127528 -18.35661889 5.21686284 -15.9765625 3.76953125 C-15.20054687 3.45371094 -14.42453125 3.13789063 -13.625 2.8125 C-12.85414063 2.48894531 -12.08328125 2.16539062 -11.2890625 1.83203125 C-7.38524855 0.41306816 -4.16354719 -0.11565409 0 0 Z " fill="#CACACA" transform="translate(146,344)"/>
<path d="M0 0 C2.60704898 2.60704898 2.23905333 4.47338241 2.265625 8.02734375 C1.7323875 11.98741638 -1.25855046 14.34993211 -4 17 C-2.76123355 11.30694567 -1.43723997 5.64629987 0 0 Z " fill="#D6D6D6" transform="translate(393,160)"/>
<path d="M0 0 C2.64 0.66 5.28 1.32 8 2 C8.33 1.34 8.66 0.68 9 0 C9.66 1.32 10.32 2.64 11 4 C9.11940967 5.88059033 6.50109962 5.12361218 4.0078125 5.1328125 C2 5 2 5 -1 4 C-0.67 2.68 -0.34 1.36 0 0 Z " fill="#161616" transform="translate(265,265)"/>
<path d="M0 0 C0.33 0 0.66 0 1 0 C1.22537111 3.12401779 1.42738648 6.24911333 1.625 9.375 C1.68945312 10.26445312 1.75390625 11.15390625 1.8203125 12.0703125 C1.871875 12.92109375 1.9234375 13.771875 1.9765625 14.6484375 C2.02893066 15.43395996 2.08129883 16.21948242 2.13525391 17.02880859 C2 19 2 19 0 21 C0 20.34 0 19.68 0 19 C-0.66 19 -1.32 19 -2 19 C-2.625 16.625 -2.625 16.625 -3 14 C-2.34 13.34 -1.68 12.68 -1 12 C-0.53603307 9.10776497 -0.53603307 9.10776497 -0.375 5.875 C-0.30023438 4.77929688 -0.22546875 3.68359375 -0.1484375 2.5546875 C-0.09945312 1.71164063 -0.05046875 0.86859375 0 0 Z " fill="#B3B3B3" transform="translate(225,220)"/>
<path d="M0 0 C1.32 0.33 2.64 0.66 4 1 C4 3.97 4 6.94 4 10 C3.34 9.34 2.68 8.68 2 8 C2 7.34 2 6.68 2 6 C1.34 5.67 0.68 5.34 0 5 C-0.33 5.99 -0.66 6.98 -1 8 C-1.66 6.68 -2.32 5.36 -3 4 C-2.01 2.68 -1.02 1.36 0 0 Z " fill="#303030" transform="translate(380,144)"/>
<path d="M0 0 C0.66 0.33 1.32 0.66 2 1 C0.32971708 4.94794145 -2.1795565 7.81796118 -5 11 C-5.33 11 -5.66 11 -6 11 C-5.63076923 4.6 -5.63076923 4.6 -2.4375 1.5625 C-1.633125 1.046875 -0.82875 0.53125 0 0 Z " fill="#1F1F1F" transform="translate(337,241)"/>
<path d="M0 0 C1.74565111 3.21639654 2.204437 5.32013404 2 9 C1.01 9.33 0.02 9.66 -1 10 C-2.20882096 12.00016466 -2.20882096 12.00016466 -3 14 C-4.37095624 10.30962722 -3.60010967 8.29116165 -2.0625 4.75 C-1.68222656 3.85796875 -1.30195313 2.9659375 -0.91015625 2.046875 C-0.60980469 1.37140625 -0.30945313 0.6959375 0 0 Z " fill="#D6D6D6" transform="translate(387,184)"/>
<path d="M0 0 C0.99 0.33 1.98 0.66 3 1 C1.87548273 3.9719385 0.77706209 6.33440687 -1 9 C-1.66 9 -2.32 9 -3 9 C-3.33 9.66 -3.66 10.32 -4 11 C-4.33 10.34 -4.66 9.68 -5 9 C-4.00390625 6.8359375 -4.00390625 6.8359375 -2.5625 4.375 C-2.08941406 3.55773437 -1.61632812 2.74046875 -1.12890625 1.8984375 C-0.75636719 1.27195313 -0.38382812 0.64546875 0 0 Z " fill="#292929" transform="translate(347,198)"/>
<path d="M0 0 C0.33 0 0.66 0 1 0 C1.39169887 2.66355234 1.40564529 4.39224373 -0.11328125 6.66796875 C-1.36389317 8.1510888 -2.67864514 9.57954352 -4 11 C-5.32 10.34 -6.64 9.68 -8 9 C-7.34 8.67 -6.68 8.34 -6 8 C-6 7.34 -6 6.68 -6 6 C-5.34 6 -4.68 6 -4 6 C-3.67 5.34 -3.34 4.68 -3 4 C-2.01 3.67 -1.02 3.34 0 3 C0 2.01 0 1.02 0 0 Z " fill="#282828" transform="translate(351,145)"/>
<path d="M0 0 C0.66 0 1.32 0 2 0 C2.49230769 6.4 2.49230769 6.4 0 9.4375 C-0.99 10.2109375 -0.99 10.2109375 -2 11 C-2.66 10.34 -3.32 9.68 -4 9 C-3.34 8.34 -2.68 7.68 -2 7 C-2 6.01 -2 5.02 -2 4 C-1 1.8125 -1 1.8125 0 0 Z " fill="#101010" transform="translate(300,217)"/>
<path d="M0 0 C0.33 0.66 0.66 1.32 1 2 C0 5 0 5 -2 7 C-2.309375 7.66 -2.61875 8.32 -2.9375 9 C-4 11 -4 11 -7 13 C-7.33 12.01 -7.66 11.02 -8 10 C-6.34765625 7.51953125 -6.34765625 7.51953125 -4.0625 4.8125 C-3.31097656 3.91144531 -2.55945313 3.01039063 -1.78515625 2.08203125 C-0.90150391 1.05142578 -0.90150391 1.05142578 0 0 Z " fill="#333333" transform="translate(362,240)"/>
<path d="M0 0 C-0.66 1.32 -1.32 2.64 -2 4 C-3.65 4 -5.3 4 -7 4 C-7 3.34 -7 2.68 -7 2 C-7.66 1.67 -8.32 1.34 -9 1 C-5.64919071 -1.10976881 -3.77897651 -1.0497157 0 0 Z " fill="#111111" transform="translate(193,426)"/>
<path d="M0 0 C3.3 1.98 6.6 3.96 10 6 C9.34 6.66 8.68 7.32 8 8 C5.14169516 7.80944634 3.96573509 6.97144591 1.75 5.125 C0 3 0 3 0 0 Z " fill="#2E2E2E" transform="translate(126,412)"/>
<path d="M0 0 C1.65 0 3.3 0 5 0 C5.33 0.66 5.66 1.32 6 2 C-1.0547046 7.05908096 -1.0547046 7.05908096 -5 6.8125 C-5.66 6.544375 -6.32 6.27625 -7 6 C-4.77810176 3.77810176 -2.91517292 3.07401108 0 2 C0 1.34 0 0.68 0 0 Z " fill="#2C2C2C" transform="translate(239,145)"/>
<path d="M0 0 C0 3.86695678 -1.41909971 6.5088452 -3 10 C-3.33 9.34 -3.66 8.68 -4 8 C-4.99 7.67 -5.98 7.34 -7 7 C-6.34 6.34 -5.68 5.68 -5 5 C-4.3574765 2.93125966 -4.3574765 2.93125966 -4 1 C-2.68 0.67 -1.36 0.34 0 0 Z " fill="#969696" transform="translate(303,286)"/>
<path d="M0 0 C0 2.31 0 4.62 0 7 C-0.78375 6.814375 -1.5675 6.62875 -2.375 6.4375 C-4.97089775 5.74037734 -4.97089775 5.74037734 -7 7 C-5.80061288 4.10148113 -3.63852862 0 0 0 Z " fill="#D8D8D8" transform="translate(249,162)"/>
<path d="M0 0 C3.3 0.99 6.6 1.98 10 3 C8 5 8 5 5.375 5.125 C4.59125 5.08375 3.8075 5.0425 3 5 C3 4.34 3 3.68 3 3 C1.35 2.67 -0.3 2.34 -2 2 C-1.34 1.34 -0.68 0.68 0 0 Z " fill="#272727" transform="translate(203,346)"/>
<path d="M0 0 C3 1.8125 3 1.8125 6 4 C6 4.99 6 5.98 6 7 C5.01 7.495 5.01 7.495 4 8 C3.34 7.67 2.68 7.34 2 7 C2 6.01 2 5.02 2 4 C0.68 3.34 -0.64 2.68 -2 2 C-1.34 2 -0.68 2 0 2 C0 1.34 0 0.68 0 0 Z " fill="#343434" transform="translate(283,397)"/>
<path d="M0 0 C1.32 1.32 2.64 2.64 4 4 C1.69 5.32 -0.62 6.64 -3 8 C-3.33 7.01 -3.66 6.02 -4 5 C-3.34 4.01 -2.68 3.02 -2 2 C-1.34 2 -0.68 2 0 2 C0 1.34 0 0.68 0 0 Z " fill="#C8C8C8" transform="translate(231,402)"/>
<path d="M0 0 C1.32 0.33 2.64 0.66 4 1 C3.34 1.66 2.68 2.32 2 3 C3.32 3.66 4.64 4.32 6 5 C2.7 5.33 -0.6 5.66 -4 6 C-4 5.01 -4 4.02 -4 3 C-3.01 3 -2.02 3 -1 3 C-0.67 2.01 -0.34 1.02 0 0 Z " fill="#353535" transform="translate(160,321)"/>
<path d="M0 0 C2 2 2 2 2.125 4.625 C2.08375 5.40875 2.0425 6.1925 2 7 C-0.91517292 5.92598892 -2.77810176 5.22189824 -5 3 C-3.35 2.01 -1.7 1.02 0 0 Z " fill="#D3D3D3" transform="translate(257,155)"/>
<path d="M0 0 C2.6486859 3.19668988 4.93992341 6.39486597 7 10 C4.33246269 9.63206382 3.18001672 9.18001672 1.25 7.25 C-0.21079991 4.62056017 -0.24687966 2.9625559 0 0 Z " fill="#B9B9B9" transform="translate(230,248)"/>
<path d="M0 0 C3 0 3 0 5 1 C5 2.65 5 4.3 5 6 C3.68 6.33 2.36 6.66 1 7 C0.67 4.69 0.34 2.38 0 0 Z " fill="#0E0E0E" transform="translate(249,312)"/>
<path d="M0 0 C0.66 0.33 1.32 0.66 2 1 C2 1.66 2 2.32 2 3 C0.04783565 4.95216435 -1.53199953 5.84826645 -4 7 C-4.66 6.34 -5.32 5.68 -6 5 C-4.02 3.35 -2.04 1.7 0 0 Z " fill="#121212" transform="translate(327,273)"/>
<path d="M0 0 C-4.455 2.97 -4.455 2.97 -9 6 C-9 3 -9 3 -7.6875 1.375 C-4.83663561 -0.94792654 -3.48907273 -1.16302424 0 0 Z " fill="#BFBFBF" transform="translate(332,270)"/>
<path d="M0 0 C1.1577506 3.47325181 1.06866652 6.36067448 1 10 C-0.32 10.33 -1.64 10.66 -3 11 C-2.53199289 6.94393835 -2.12046792 3.53411321 0 0 Z " fill="#DADADA" transform="translate(379,204)"/>
<path d="M0 0 C1.65 0.33 3.3 0.66 5 1 C5 1.99 5 2.98 5 4 C3.02 4.33 1.04 4.66 -1 5 C-0.67 3.35 -0.34 1.7 0 0 Z " fill="#141414" transform="translate(401,481)"/>
<path d="M0 0 C0.625 1.8125 0.625 1.8125 1 4 C-1.40436026 7.60654039 -2.94679607 7.85452932 -7 9 C-6.02180976 7.68677212 -5.0424189 6.37443848 -4.0625 5.0625 C-3.51722656 4.33160156 -2.97195313 3.60070312 -2.41015625 2.84765625 C-1 1 -1 1 0 0 Z " fill="#303030" transform="translate(494,466)"/>
<path d="M0 0 C0 0.66 0 1.32 0 2 C-0.99 2 -1.98 2 -3 2 C-3 2.99 -3 3.98 -3 5 C-3.66 5 -4.32 5 -5 5 C-5 5.66 -5 6.32 -5 7 C-8 6 -8 6 -10 4 C-8.71086513 3.32845067 -7.41859796 2.66291141 -6.125 2 C-5.40570313 1.62875 -4.68640625 1.2575 -3.9453125 0.875 C-2 0 -2 0 0 0 Z " fill="#2E2E2E" transform="translate(224,413)"/>
<path d="M0 0 C0 0.99 0 1.98 0 3 C-0.99 3.66 -1.98 4.32 -3 5 C-4.20450304 7.55183404 -4.20450304 7.55183404 -5 10 C-5.99 10 -6.98 10 -8 10 C-6.5682479 4.98886765 -4.01554307 3.05530451 0 0 Z " fill="#343434" transform="translate(129,351)"/>
<path d="M0 0 C1.40907283 2.81814566 0.50872691 4.17277204 -0.4375 7.125 C-0.72496094 8.03507813 -1.01242187 8.94515625 -1.30859375 9.8828125 C-1.53675781 10.58148438 -1.76492188 11.28015625 -2 12 C-2.66 11.34 -3.32 10.68 -4 10 C-3.72317437 5.75534029 -2.81645906 3.18382329 0 0 Z " fill="#363636" transform="translate(382,158)"/>
<path d="M0 0 C0 2.33333333 0 4.66666667 0 7 C-3.465 8.485 -3.465 8.485 -7 10 C-5.33248852 6.05860922 -2.77289351 3.2107188 0 0 Z " fill="#DADADA" transform="translate(365,156)"/>
<path d="M0 0 C0.66 0.33 1.32 0.66 2 1 C0.02 1.99 0.02 1.99 -2 3 C-2 4.32 -2 5.64 -2 7 C-4.31 7.33 -6.62 7.66 -9 8 C-6.14723863 5.06799526 -3.34920216 2.35684596 0 0 Z " fill="#383838" transform="translate(272,151)"/>
<path d="M0 0 C0 1.66666667 0 3.33333333 0 5 C-3 7 -3 7 -7 7 C-7 6.34 -7 5.68 -7 5 C-6.401875 4.731875 -5.80375 4.46375 -5.1875 4.1875 C-3.02775192 3.01506533 -1.64209744 1.80630718 0 0 Z " fill="#CFCFCF" transform="translate(486,471)"/>
<path d="M0 0 C0.66 0 1.32 0 2 0 C1.25 5.75 1.25 5.75 -1 8 C-1.66 6.68 -2.32 5.36 -3 4 C-1.625 2 -1.625 2 0 0 Z " fill="#282828" transform="translate(485,434)"/>
<path d="M0 0 C1.32 0.33 2.64 0.66 4 1 C4 1.99 4 2.98 4 4 C1.03 3.505 1.03 3.505 -2 3 C-2 3.66 -2 4.32 -2 5 C-2.66 5 -3.32 5 -4 5 C-3.67 4.01 -3.34 3.02 -3 2 C-2.01 2 -1.02 2 0 2 C0 1.34 0 0.68 0 0 Z " fill="#0E0E0E" transform="translate(214,418)"/>
<path d="M0 0 C2.97 0.495 2.97 0.495 6 1 C5.34 2.32 4.68 3.64 4 5 C2.68 4.67 1.36 4.34 0 4 C0 2.68 0 1.36 0 0 Z " fill="#232323" transform="translate(199,249)"/>
<path d="M0 0 C0.33 0.99 0.66 1.98 1 3 C1.66 3 2.32 3 3 3 C1.25 8.75 1.25 8.75 -1 11 C-1.33 9.68 -1.66 8.36 -2 7 C-1.01 6.67 -0.02 6.34 1 6 C0.34 5.67 -0.32 5.34 -1 5 C-0.67 3.35 -0.34 1.7 0 0 Z " fill="#292929" transform="translate(371,179)"/>
<path d="M0 0 C0.66 0.33 1.32 0.66 2 1 C1.67 3.64 1.34 6.28 1 9 C-0.32 8.34 -1.64 7.68 -3 7 C-1.125 1.125 -1.125 1.125 0 0 Z " fill="#C6C6C6" transform="translate(392,172)"/>
<path d="M0 0 C0.66 0.33 1.32 0.66 2 1 C1.34 2.65 0.68 4.3 0 6 C-1.65 6 -3.3 6 -5 6 C-5 5.34 -5 4.68 -5 4 C-3.37373596 2.61767557 -1.7074998 1.28062485 0 0 Z " fill="#CECECE" transform="translate(351,248)"/>
<path d="M0 0 C3.3 1.98 6.6 3.96 10 6 C9.01 6.495 9.01 6.495 8 7 C3.45294283 5.20012321 2.25558968 4.51117936 0 0 Z " fill="#252525" transform="translate(350,453)"/>
<path d="M0 0 C0.33 0.99 0.66 1.98 1 3 C-1.31 4.98 -3.62 6.96 -6 9 C-6 6 -6 6 -3.5625 3.375 C-2.716875 2.59125 -1.87125 1.8075 -1 1 C-0.67 0.67 -0.34 0.34 0 0 Z " fill="#DFDFDF" transform="translate(220,380)"/>
<path d="M0 0 C1.32 0 2.64 0 4 0 C3.67 1.98 3.34 3.96 3 6 C2.01 6.33 1.02 6.66 0 7 C0 4.69 0 2.38 0 0 Z " fill="#131313" transform="translate(108,360)"/>
<path d="M0 0 C0.33 0 0.66 0 1 0 C1.33 2.64 1.66 5.28 2 8 C0.35 7.67 -1.3 7.34 -3 7 C-2.01 4.69 -1.02 2.38 0 0 Z " fill="#2D2D2D" transform="translate(291,312)"/>
<path d="M0 0 C0.53625 0.226875 1.0725 0.45375 1.625 0.6875 C-0.355 2.0075 -2.335 3.3275 -4.375 4.6875 C-5.695 4.0275 -7.015 3.3675 -8.375 2.6875 C-2.95961538 -0.38942308 -2.95961538 -0.38942308 0 0 Z " fill="#262626" transform="translate(314.375,281.3125)"/>
<path d="M0 0 C0.66 0 1.32 0 2 0 C3.42944945 2.35438733 4.08661261 3.48032433 3.625 6.25 C3.41875 6.8275 3.2125 7.405 3 8 C2.01 7.67 1.02 7.34 0 7 C-0.38133299 5.0085944 -0.71325582 3.00720923 -1 1 C-0.67 0.67 -0.34 0.34 0 0 Z " fill="#232323" transform="translate(210,263)"/>
<path d="M0 0 C0.66 0.99 1.32 1.98 2 3 C0.68 4.32 -0.64 5.64 -2 7 C-2 6.34 -2 5.68 -2 5 C-2.99 4.67 -3.98 4.34 -5 4 C-4.34 4 -3.68 4 -3 4 C-2.67 3.01 -2.34 2.02 -2 1 C-1.34 0.67 -0.68 0.34 0 0 Z " fill="#CACACA" transform="translate(359,240)"/>
<path d="M0 0 C0.99 0.33 1.98 0.66 3 1 C1.68 3.64 0.36 6.28 -1 9 C-1.66 7.68 -2.32 6.36 -3 5 C-2.34 5 -1.68 5 -1 5 C-0.67 3.35 -0.34 1.7 0 0 Z " fill="#282828" transform="translate(316,194)"/>
<path d="M0 0 C0.99 0.33 1.98 0.66 3 1 C2.34 3.64 1.68 6.28 1 9 C0.34 8.67 -0.32 8.34 -1 8 C-0.7215625 7.1028125 -0.7215625 7.1028125 -0.4375 6.1875 C0.22093687 3.83591238 0.22093687 3.83591238 -1 1 C-0.67 0.67 -0.34 0.34 0 0 Z " fill="#272727" transform="translate(204,191)"/>
<path d="M0 0 C2.97 0 5.94 0 9 0 C8.67 0.99 8.34 1.98 8 3 C6.35 3 4.7 3 3 3 C3 2.34 3 1.68 3 1 C2.01 0.67 1.02 0.34 0 0 Z " fill="#121212" transform="translate(160,427)"/>
<path d="M0 0 C0.66 0 1.32 0 2 0 C2.66 1.32 3.32 2.64 4 4 C3.01 4.495 3.01 4.495 2 5 C2.33 5.66 2.66 6.32 3 7 C1.68 6.34 0.36 5.68 -1 5 C-0.67 3.35 -0.34 1.7 0 0 Z " fill="#DEDEDE" transform="translate(261,349)"/>
<path d="M0 0 C-2.85306797 2.32472205 -5.54074837 3.7508258 -9 5 C-6.81610567 0.16423399 -5.20641855 -0.13701101 0 0 Z " fill="#BEBEBE" transform="translate(135,348)"/>
<path d="M0 0 C0.66 0 1.32 0 2 0 C2.33 0.99 2.66 1.98 3 3 C1.5625 5.1875 1.5625 5.1875 0 7 C0 6.34 0 5.68 0 5 C-0.66 5 -1.32 5 -2 5 C-2 4.01 -2 3.02 -2 2 C-1.34 2 -0.68 2 0 2 C0 1.34 0 0.68 0 0 Z " fill="#C4C4C4" transform="translate(341,202)"/>
<path d="M0 0 C0.66 0.33 1.32 0.66 2 1 C-0.97 4.96 -0.97 4.96 -4 9 C-4.66 8.67 -5.32 8.34 -6 8 C-4.7260411 5.96166576 -3.38938077 3.96147874 -2 2 C-1.34 2 -0.68 2 0 2 C0 1.34 0 0.68 0 0 Z " fill="#DEDEDE" transform="translate(240,169)"/>
<path d="M0 0 C0.66 1.32 1.32 2.64 2 4 C-0.90600261 5.25664978 -2.79604584 6 -6 6 C-4.02 4.02 -2.04 2.04 0 0 Z " fill="#2F2F2F" transform="translate(257,163)"/>
<path d="M0 0 C0.66 0 1.32 0 2 0 C1.67 3.3 1.34 6.6 1 10 C-0.87376865 6.2524627 -1.3214079 4.96403081 -1 1 C-0.67 0.67 -0.34 0.34 0 0 Z " fill="#BBBBBB" transform="translate(395,156)"/>
<path d="M0 0 C3.3 0.33 6.6 0.66 10 1 C9.67 1.99 9.34 2.98 9 4 C6.03 3.01 3.06 2.02 0 1 C0 0.67 0 0.34 0 0 Z " fill="#323232" transform="translate(385,433)"/>
<path d="M0 0 C2.97 1.98 2.97 1.98 6 4 C4.02 4.99 4.02 4.99 2 6 C1.67 5.01 1.34 4.02 1 3 C0.34 2.67 -0.32 2.34 -1 2 C-0.67 1.34 -0.34 0.68 0 0 Z " fill="#2E2E2E" transform="translate(315,425)"/>
<path d="M0 0 C-2.05233685 2.2477975 -3.00667261 3.0022242 -6 4 C-6.99 3.01 -7.98 2.02 -9 1 C-5.92677456 0.08941469 -3.19902639 -0.08886184 0 0 Z " fill="#CACACA" transform="translate(227,410)"/>
<path d="M0 0 C0.99 0.33 1.98 0.66 3 1 C3.33 2.32 3.66 3.64 4 5 C1.36 4.34 -1.28 3.68 -4 3 C-2.1875 1.4375 -2.1875 1.4375 0 0 Z " fill="#373737" transform="translate(222,331)"/>
<path d="M0 0 C0.99 1.32 1.98 2.64 3 4 C2 5 2 5 -0.4375 5.25 C-1.283125 5.1675 -2.12875 5.085 -3 5 C-3.66 4.01 -4.32 3.02 -5 2 C-3.35 2 -1.7 2 0 2 C0 1.34 0 0.68 0 0 Z " fill="#0F0F0F" transform="translate(273,265)"/>
<path d="M0 0 C0 2 0 4 0 6 C-0.66 6 -1.32 6 -2 6 C-2.33 6.66 -2.66 7.32 -3 8 C-3 7.34 -3 6.68 -3 6 C-3.66 5.67 -4.32 5.34 -5 5 C-3.35 3.35 -1.7 1.7 0 0 Z " fill="#2D2D2D" transform="translate(343,260)"/>
<path d="M0 0 C0.66 0.99 1.32 1.98 2 3 C0.35 4.98 -1.3 6.96 -3 9 C-3.66 8.67 -4.32 8.34 -5 8 C-3.35 5.36 -1.7 2.72 0 0 Z " fill="#DADADA" transform="translate(370,222)"/>
<path d="M0 0 C-1.45255699 3.82946843 -3.42895561 5.12050295 -7 7 C-4.60526316 0 -4.60526316 0 0 0 Z " fill="#EAEAEA" transform="translate(326,189)"/>
<path d="M0 0 C1 2 1 2 0.3125 4.5625 C-1 7 -1 7 -3.125 7.8125 C-3.74375 7.874375 -4.3625 7.93625 -5 8 C-3.62845496 5.04590299 -2.01136276 2.55991624 0 0 Z " fill="#333333" transform="translate(250,170)"/>
<path d="M0 0 C1.66362417 0.34820041 3.32995171 0.68404492 5 1 C5 1.33 5 1.66 5 2 C-3.57142857 2.28571429 -3.57142857 2.28571429 -7 0 C-3.98968256 -0.93423645 -3.13349732 -1.04449911 0 0 Z " fill="#2E2E2E" transform="translate(459,452)"/>
<path d="M0 0 C0.33 1.32 0.66 2.64 1 4 C-0.98 4.99 -0.98 4.99 -3 6 C-3 4.68 -3 3.36 -3 2 C-2.01 1.34 -1.02 0.68 0 0 Z " fill="#2C2C2C" transform="translate(479,443)"/>
<path d="M0 0 C-1.28965176 1.37562854 -2.62689293 2.70766393 -4 4 C-4.66 4 -5.32 4 -6 4 C-6 2.68 -6 1.36 -6 0 C-3.50907189 -1.24546405 -2.58919267 -0.7767578 0 0 Z " fill="#141414" transform="translate(158,427)"/>
<path d="M0 0 C0 0.99 0 1.98 0 3 C-3.3 3 -6.6 3 -10 3 C-10 2.67 -10 2.34 -10 2 C-3.375 0 -3.375 0 0 0 Z " fill="#CFCFCF" transform="translate(304,283)"/>
<path d="M0 0 C1.65 0 3.3 0 5 0 C3.35 1.65 1.7 3.3 0 5 C-0.33 4.01 -0.66 3.02 -1 2 C-0.67 1.34 -0.34 0.68 0 0 Z " fill="#BFBFBF" transform="translate(345,254)"/>
<path d="M0 0 C0.66 0 1.32 0 2 0 C0.75023244 3.65316671 0.32901247 4.78065836 -3 7 C-3 5.68 -3 4.36 -3 3 C-2.34 3 -1.68 3 -1 3 C-0.67 2.01 -0.34 1.02 0 0 Z " fill="#272727" transform="translate(334,245)"/>
<path d="M0 0 C0.33 0 0.66 0 1 0 C1.3125 2.1875 1.3125 2.1875 1 5 C-1.5 7.8125 -1.5 7.8125 -4 10 C-2.8905928 6.51329166 -1.73662334 3.22515763 0 0 Z " fill="#303030" transform="translate(323,242)"/>
<path d="M0 0 C1.32 0.33 2.64 0.66 4 1 C3.67 2.98 3.34 4.96 3 7 C0 3.375 0 3.375 0 0 Z " fill="#0E0E0E" transform="translate(312,192)"/>
<path d="M0 0 C0.99 0.33 1.98 0.66 3 1 C2.67 2.32 2.34 3.64 2 5 C0.68 5 -0.64 5 -2 5 C-1.34 3.35 -0.68 1.7 0 0 Z " fill="#232323" transform="translate(364,168)"/>
<path d="M0 0 C0.33 0.99 0.66 1.98 1 3 C-0.40445835 5.2636564 -2.1967913 7.0208685 -4 9 C-4.66 8.67 -5.32 8.34 -6 8 C-4.02 5.36 -2.04 2.72 0 0 Z " fill="#D0D0D0" transform="translate(339,165)"/>
<path d="M0 0 C0.99 0 1.98 0 3 0 C3.66 0.66 4.32 1.32 5 2 C4.0409375 2.433125 4.0409375 2.433125 3.0625 2.875 C0.84793921 3.82823451 0.84793921 3.82823451 0 6 C0 5.34 0 4.68 0 4 C-0.66 3.67 -1.32 3.34 -2 3 C-1.34 3 -0.68 3 0 3 C0 2.01 0 1.02 0 0 Z " fill="#363636" transform="translate(228,153)"/>
</svg>
